# xmcd CD database file
#
# Track frame offsets:
#	150
#	10596
#	23584
#	34489
#	46239
#	56147
#	66313
#	77056
#	91053
#	99906
#	112900
#	128705
#	157038
#	173935
#	187560
#	198108
#	212034
#	225269
#	239265
#
# Disc length: 3387 seconds
#
# Revision: 0
# Processed by: cddbd v1.5.2PL0 Copyright (c) Steve Scherf et al.
# Submitted via: CDex 1.51
#
DISCID=e20d3913
DTITLE=Louis Armstrong  - The Complete Collection CD1
DYEAR=2007
DGENRE=Jazz
TTITLE0=What A Wonderful World
TTITLE1=Blueberry Hill
TTITLE2=Hello Dolly
TTITLE3=Lot Of Livin' To Do
TTITLE4=I Still Get Jealous
TTITLE5=So Long Dearie
TTITLE6=Mame
TTITLE7=Dream A Little Dream Of Me
TTITLE8=Give Me Your Kisses (I'll Give You My Heart)
TTITLE9=Sunshine Of Love
TTITLE10=Hello Brother
TTITLE11=Muskrat
TTITLE12=Skokiaan (South African Song)
TTITLE13=Sittin' In The Sun
TTITLE14=Dummy Song
TTITLE15=Chloe (Song Of The Swamp)
TTITLE16=It Takes Two To Tango
TTITLE17=Kiss Of Fire
TTITLE18=When It's Sleepy Time Down South
EXTD=YEAR: 2007
EXTT0=
EXTT1=
EXTT2=
EXTT3=
EXTT4=
EXTT5=
EXTT6=
EXTT7=
EXTT8=
EXTT9=
EXTT10=
EXTT11=
EXTT12=
EXTT13=
EXTT14=
EXTT15=
EXTT16=
EXTT17=
EXTT18=
PLAYORDER=
